<svg width="210" height="55" viewBox="0 0 210 55" fill="none" xmlns="http://www.w3.org/2000/svg">
<mask id="path-1-outside-1_489_57" maskUnits="userSpaceOnUse" x="1" y="10" width="178" height="34" fill="black">
<rect fill="white" x="1" y="10" width="178" height="34"/>
<path d="M2.5956 42V13.16L5.6444 12.4596V23.7896C7.26493 21.8944 9.4348 20.9468 12.154 20.9468C13.7196 20.9468 15.0929 21.2901 16.274 21.9768C17.4825 22.636 18.4164 23.5699 19.0756 24.7784C19.7623 25.9595 20.1056 27.3465 20.1056 28.9396V42H17.098V29.5576C17.098 27.7173 16.5761 26.2753 15.5324 25.2316C14.5161 24.1604 13.1153 23.6248 11.33 23.6248C10.094 23.6248 8.99533 23.8995 8.034 24.4488C7.07267 24.9981 6.27613 25.7809 5.6444 26.7972V42H2.5956ZM31.7169 42.3708C30.2063 42.3708 28.8741 42.1099 27.7205 41.588C26.5944 41.0661 25.7017 40.3383 25.0425 39.4044C24.4108 38.4705 24.0949 37.3856 24.0949 36.1496C24.0949 34.1995 24.8365 32.6613 26.3197 31.5352C27.8029 30.4091 29.808 29.846 32.3349 29.846C34.5597 29.846 36.5785 30.3129 38.3913 31.2468V28.5276C38.3913 26.8796 37.9244 25.6436 36.9905 24.8196C36.0567 23.9681 34.6971 23.5424 32.9117 23.5424C31.8955 23.5424 30.8655 23.6935 29.8217 23.9956C28.8055 24.2703 27.6793 24.7235 26.4433 25.3552L25.2897 23.0068C26.7729 22.2927 28.1463 21.7708 29.4097 21.4412C30.6732 21.1116 31.9367 20.9468 33.2001 20.9468C35.8095 20.9468 37.8145 21.5648 39.2153 22.8008C40.6436 24.0368 41.3577 25.8084 41.3577 28.1156V42H38.3913V39.9812C37.4575 40.7777 36.4275 41.382 35.3013 41.794C34.2027 42.1785 33.0079 42.3708 31.7169 42.3708ZM27.0201 36.0672C27.0201 37.2208 27.5008 38.1684 28.4621 38.91C29.4509 39.6241 30.7144 39.9812 32.2525 39.9812C33.4885 39.9812 34.6147 39.7889 35.6309 39.4044C36.6472 39.0199 37.5673 38.4156 38.3913 37.5916V33.7188C37.5399 33.142 36.6335 32.73 35.6721 32.4828C34.7108 32.2081 33.6259 32.0708 32.4173 32.0708C30.7693 32.0708 29.4509 32.4416 28.4621 33.1832C27.5008 33.8973 27.0201 34.8587 27.0201 36.0672ZM53.964 42.412C52.1786 42.412 50.8053 41.9863 49.844 41.1348C48.8826 40.2833 48.402 39.0473 48.402 37.4268V23.9544H43.9524V21.3588H48.402V16.1264L51.4096 15.3436V21.3588H57.6308V23.9544H51.4096V36.644C51.4096 37.7427 51.6568 38.5392 52.1512 39.0336C52.6456 39.5005 53.4558 39.734 54.582 39.734C55.1588 39.734 55.6669 39.6928 56.1064 39.6104C56.5733 39.528 57.0677 39.3907 57.5896 39.1984V41.8764C57.0677 42.0687 56.4772 42.206 55.818 42.2884C55.1862 42.3708 54.5682 42.412 53.964 42.412ZM70.1749 42.3708C68.1973 42.3708 66.3982 41.9039 64.7777 40.97C63.1846 40.0087 61.9074 38.7177 60.9461 37.0972C60.0122 35.4767 59.5453 33.6639 59.5453 31.6588C59.5453 29.6812 59.9985 27.8959 60.9049 26.3028C61.8113 24.6823 63.0335 23.4051 64.5717 22.4712C66.1098 21.5099 67.8265 21.0292 69.7217 21.0292C71.5619 21.0292 73.2099 21.5099 74.6657 22.4712C76.1489 23.4051 77.3162 24.6823 78.1677 26.3028C79.0466 27.8959 79.4861 29.6812 79.4861 31.6588V32.6064H62.5529C62.7177 33.9523 63.1434 35.1608 63.8301 36.232C64.5442 37.3032 65.4643 38.1547 66.5905 38.7864C67.7166 39.3907 68.9526 39.6928 70.2985 39.6928C71.3697 39.6928 72.4134 39.528 73.4297 39.1984C74.4459 38.8688 75.2974 38.4019 75.9841 37.7976L77.8793 39.8164C76.7257 40.6679 75.5171 41.3133 74.2537 41.7528C73.0177 42.1648 71.6581 42.3708 70.1749 42.3708ZM62.6353 30.1756H76.4373C76.2725 28.9396 75.8605 27.8409 75.2013 26.8796C74.5695 25.8908 73.773 25.1217 72.8117 24.5724C71.8503 23.9956 70.7929 23.7072 69.6393 23.7072C68.4582 23.7072 67.3733 23.9819 66.3845 24.5312C65.3957 25.0805 64.5717 25.8496 63.9125 26.8384C63.2533 27.7997 62.8275 28.9121 62.6353 30.1756ZM93.3479 42.412C91.3978 42.412 89.6125 41.9451 87.9919 41.0112C86.3989 40.0499 85.1354 38.7589 84.2015 37.1384C83.2677 35.5179 82.8007 33.7051 82.8007 31.7C82.8007 29.6949 83.2677 27.8821 84.2015 26.2616C85.1354 24.6411 86.3989 23.3639 87.9919 22.43C89.6125 21.4687 91.3978 20.988 93.3479 20.988C95.3255 20.988 97.1109 21.4687 98.7039 22.43C100.297 23.3639 101.56 24.6411 102.494 26.2616C103.428 27.8821 103.895 29.6949 103.895 31.7C103.895 33.7051 103.428 35.5179 102.494 37.1384C101.56 38.7589 100.297 40.0499 98.7039 41.0112C97.1109 41.9451 95.3255 42.412 93.3479 42.412ZM93.3479 39.6928C94.7487 39.6928 96.0122 39.3357 97.1383 38.6216C98.2919 37.9075 99.1983 36.9461 99.8575 35.7376C100.544 34.5291 100.888 33.1832 100.888 31.7C100.888 30.1893 100.544 28.8435 99.8575 27.6624C99.1983 26.4539 98.2919 25.4925 97.1383 24.7784C96.0122 24.0643 94.7487 23.7072 93.3479 23.7072C91.9471 23.7072 90.6699 24.0643 89.5163 24.7784C88.3902 25.4925 87.4838 26.4539 86.7971 27.6624C86.1379 28.8435 85.8083 30.1893 85.8083 31.7C85.8083 33.1832 86.1379 34.5291 86.7971 35.7376C87.4838 36.9461 88.3902 37.9075 89.5163 38.6216C90.6699 39.3357 91.9471 39.6928 93.3479 39.6928ZM108.707 42L112.415 24.49H107.718L108.419 21.0292H113.198L113.94 17.4036C114.379 15.3711 115.244 13.8192 116.535 12.748C117.854 11.6493 119.529 11.1 121.562 11.1C122.166 11.1 122.784 11.1549 123.416 11.2648C124.047 11.3472 124.583 11.4845 125.022 11.6768L124.322 15.22C123.883 15.0552 123.443 14.9316 123.004 14.8492C122.564 14.7668 122.07 14.7256 121.52 14.7256C120.477 14.7256 119.666 14.9728 119.09 15.4672C118.513 15.9341 118.115 16.6895 117.895 17.7332L117.236 21.0292H123.086L122.303 24.49H116.453L112.745 42H108.707ZM121.754 42L127.893 13.16L132.095 12.2536L125.792 42H121.754ZM138.969 42.3708C137.294 42.3708 135.879 41.9863 134.726 41.2172C133.599 40.4481 132.803 39.4044 132.336 38.086C131.897 36.7676 131.842 35.2707 132.171 33.5952L134.849 21.0292H138.887L136.291 33.1832C135.934 34.8861 136.14 36.2595 136.909 37.3032C137.706 38.3195 138.901 38.8276 140.494 38.8276C141.537 38.8276 142.512 38.6079 143.419 38.1684C144.325 37.7289 145.135 37.0972 145.85 36.2732L149.063 21.0292H153.101L148.651 42H144.614L145.026 40.146C143.213 41.6292 141.194 42.3708 138.969 42.3708ZM151.068 42L161.492 31.1232L156.095 21.0292H160.627L164.376 28.2392L171.174 21.0292H175.994L166.065 31.288L171.792 42H167.301L163.263 34.2544L155.889 42H151.068Z"/>
</mask>
<path d="M2.5956 42V13.16L5.6444 12.4596V23.7896C7.26493 21.8944 9.4348 20.9468 12.154 20.9468C13.7196 20.9468 15.0929 21.2901 16.274 21.9768C17.4825 22.636 18.4164 23.5699 19.0756 24.7784C19.7623 25.9595 20.1056 27.3465 20.1056 28.9396V42H17.098V29.5576C17.098 27.7173 16.5761 26.2753 15.5324 25.2316C14.5161 24.1604 13.1153 23.6248 11.33 23.6248C10.094 23.6248 8.99533 23.8995 8.034 24.4488C7.07267 24.9981 6.27613 25.7809 5.6444 26.7972V42H2.5956ZM31.7169 42.3708C30.2063 42.3708 28.8741 42.1099 27.7205 41.588C26.5944 41.0661 25.7017 40.3383 25.0425 39.4044C24.4108 38.4705 24.0949 37.3856 24.0949 36.1496C24.0949 34.1995 24.8365 32.6613 26.3197 31.5352C27.8029 30.4091 29.808 29.846 32.3349 29.846C34.5597 29.846 36.5785 30.3129 38.3913 31.2468V28.5276C38.3913 26.8796 37.9244 25.6436 36.9905 24.8196C36.0567 23.9681 34.6971 23.5424 32.9117 23.5424C31.8955 23.5424 30.8655 23.6935 29.8217 23.9956C28.8055 24.2703 27.6793 24.7235 26.4433 25.3552L25.2897 23.0068C26.7729 22.2927 28.1463 21.7708 29.4097 21.4412C30.6732 21.1116 31.9367 20.9468 33.2001 20.9468C35.8095 20.9468 37.8145 21.5648 39.2153 22.8008C40.6436 24.0368 41.3577 25.8084 41.3577 28.1156V42H38.3913V39.9812C37.4575 40.7777 36.4275 41.382 35.3013 41.794C34.2027 42.1785 33.0079 42.3708 31.7169 42.3708ZM27.0201 36.0672C27.0201 37.2208 27.5008 38.1684 28.4621 38.91C29.4509 39.6241 30.7144 39.9812 32.2525 39.9812C33.4885 39.9812 34.6147 39.7889 35.6309 39.4044C36.6472 39.0199 37.5673 38.4156 38.3913 37.5916V33.7188C37.5399 33.142 36.6335 32.73 35.6721 32.4828C34.7108 32.2081 33.6259 32.0708 32.4173 32.0708C30.7693 32.0708 29.4509 32.4416 28.4621 33.1832C27.5008 33.8973 27.0201 34.8587 27.0201 36.0672ZM53.964 42.412C52.1786 42.412 50.8053 41.9863 49.844 41.1348C48.8826 40.2833 48.402 39.0473 48.402 37.4268V23.9544H43.9524V21.3588H48.402V16.1264L51.4096 15.3436V21.3588H57.6308V23.9544H51.4096V36.644C51.4096 37.7427 51.6568 38.5392 52.1512 39.0336C52.6456 39.5005 53.4558 39.734 54.582 39.734C55.1588 39.734 55.6669 39.6928 56.1064 39.6104C56.5733 39.528 57.0677 39.3907 57.5896 39.1984V41.8764C57.0677 42.0687 56.4772 42.206 55.818 42.2884C55.1862 42.3708 54.5682 42.412 53.964 42.412ZM70.1749 42.3708C68.1973 42.3708 66.3982 41.9039 64.7777 40.97C63.1846 40.0087 61.9074 38.7177 60.9461 37.0972C60.0122 35.4767 59.5453 33.6639 59.5453 31.6588C59.5453 29.6812 59.9985 27.8959 60.9049 26.3028C61.8113 24.6823 63.0335 23.4051 64.5717 22.4712C66.1098 21.5099 67.8265 21.0292 69.7217 21.0292C71.5619 21.0292 73.2099 21.5099 74.6657 22.4712C76.1489 23.4051 77.3162 24.6823 78.1677 26.3028C79.0466 27.8959 79.4861 29.6812 79.4861 31.6588V32.6064H62.5529C62.7177 33.9523 63.1434 35.1608 63.8301 36.232C64.5442 37.3032 65.4643 38.1547 66.5905 38.7864C67.7166 39.3907 68.9526 39.6928 70.2985 39.6928C71.3697 39.6928 72.4134 39.528 73.4297 39.1984C74.4459 38.8688 75.2974 38.4019 75.9841 37.7976L77.8793 39.8164C76.7257 40.6679 75.5171 41.3133 74.2537 41.7528C73.0177 42.1648 71.6581 42.3708 70.1749 42.3708ZM62.6353 30.1756H76.4373C76.2725 28.9396 75.8605 27.8409 75.2013 26.8796C74.5695 25.8908 73.773 25.1217 72.8117 24.5724C71.8503 23.9956 70.7929 23.7072 69.6393 23.7072C68.4582 23.7072 67.3733 23.9819 66.3845 24.5312C65.3957 25.0805 64.5717 25.8496 63.9125 26.8384C63.2533 27.7997 62.8275 28.9121 62.6353 30.1756ZM93.3479 42.412C91.3978 42.412 89.6125 41.9451 87.9919 41.0112C86.3989 40.0499 85.1354 38.7589 84.2015 37.1384C83.2677 35.5179 82.8007 33.7051 82.8007 31.7C82.8007 29.6949 83.2677 27.8821 84.2015 26.2616C85.1354 24.6411 86.3989 23.3639 87.9919 22.43C89.6125 21.4687 91.3978 20.988 93.3479 20.988C95.3255 20.988 97.1109 21.4687 98.7039 22.43C100.297 23.3639 101.56 24.6411 102.494 26.2616C103.428 27.8821 103.895 29.6949 103.895 31.7C103.895 33.7051 103.428 35.5179 102.494 37.1384C101.56 38.7589 100.297 40.0499 98.7039 41.0112C97.1109 41.9451 95.3255 42.412 93.3479 42.412ZM93.3479 39.6928C94.7487 39.6928 96.0122 39.3357 97.1383 38.6216C98.2919 37.9075 99.1983 36.9461 99.8575 35.7376C100.544 34.5291 100.888 33.1832 100.888 31.7C100.888 30.1893 100.544 28.8435 99.8575 27.6624C99.1983 26.4539 98.2919 25.4925 97.1383 24.7784C96.0122 24.0643 94.7487 23.7072 93.3479 23.7072C91.9471 23.7072 90.6699 24.0643 89.5163 24.7784C88.3902 25.4925 87.4838 26.4539 86.7971 27.6624C86.1379 28.8435 85.8083 30.1893 85.8083 31.7C85.8083 33.1832 86.1379 34.5291 86.7971 35.7376C87.4838 36.9461 88.3902 37.9075 89.5163 38.6216C90.6699 39.3357 91.9471 39.6928 93.3479 39.6928ZM108.707 42L112.415 24.49H107.718L108.419 21.0292H113.198L113.94 17.4036C114.379 15.3711 115.244 13.8192 116.535 12.748C117.854 11.6493 119.529 11.1 121.562 11.1C122.166 11.1 122.784 11.1549 123.416 11.2648C124.047 11.3472 124.583 11.4845 125.022 11.6768L124.322 15.22C123.883 15.0552 123.443 14.9316 123.004 14.8492C122.564 14.7668 122.07 14.7256 121.52 14.7256C120.477 14.7256 119.666 14.9728 119.09 15.4672C118.513 15.9341 118.115 16.6895 117.895 17.7332L117.236 21.0292H123.086L122.303 24.49H116.453L112.745 42H108.707ZM121.754 42L127.893 13.16L132.095 12.2536L125.792 42H121.754ZM138.969 42.3708C137.294 42.3708 135.879 41.9863 134.726 41.2172C133.599 40.4481 132.803 39.4044 132.336 38.086C131.897 36.7676 131.842 35.2707 132.171 33.5952L134.849 21.0292H138.887L136.291 33.1832C135.934 34.8861 136.14 36.2595 136.909 37.3032C137.706 38.3195 138.901 38.8276 140.494 38.8276C141.537 38.8276 142.512 38.6079 143.419 38.1684C144.325 37.7289 145.135 37.0972 145.85 36.2732L149.063 21.0292H153.101L148.651 42H144.614L145.026 40.146C143.213 41.6292 141.194 42.3708 138.969 42.3708ZM151.068 42L161.492 31.1232L156.095 21.0292H160.627L164.376 28.2392L171.174 21.0292H175.994L166.065 31.288L171.792 42H167.301L163.263 34.2544L155.889 42H151.068Z" fill="black"/>
<path d="M2.5956 42H1.5956V43H2.5956V42ZM2.5956 13.16L2.3717 12.1854L1.5956 12.3637V13.16H2.5956ZM5.6444 12.4596H6.6444V11.2038L5.4205 11.485L5.6444 12.4596ZM5.6444 23.7896H4.6444V26.4978L6.40443 24.4395L5.6444 23.7896ZM16.274 21.9768L15.7714 22.8413L15.7832 22.8482L15.7951 22.8547L16.274 21.9768ZM19.0756 24.7784L18.1977 25.2573L18.2042 25.2692L18.2111 25.281L19.0756 24.7784ZM20.1056 42V43H21.1056V42H20.1056ZM17.098 42H16.098V43H17.098V42ZM15.5324 25.2316L14.8069 25.9199L14.816 25.9294L14.8253 25.9387L15.5324 25.2316ZM8.034 24.4488L7.53786 23.5806L7.53786 23.5806L8.034 24.4488ZM5.6444 26.7972L4.79512 26.2693L4.6444 26.5117V26.7972H5.6444ZM5.6444 42V43H6.6444V42H5.6444ZM3.5956 42V13.16H1.5956V42H3.5956ZM2.8195 14.1346L5.8683 13.4342L5.4205 11.485L2.3717 12.1854L2.8195 14.1346ZM4.6444 12.4596V23.7896H6.6444V12.4596H4.6444ZM6.40443 24.4395C7.81637 22.7882 9.69725 21.9468 12.154 21.9468V19.9468C9.17236 19.9468 6.7135 21.0006 4.88437 23.1397L6.40443 24.4395ZM12.154 21.9468C13.5692 21.9468 14.7641 22.2557 15.7714 22.8413L16.7766 21.1123C15.4218 20.3246 13.87 19.9468 12.154 19.9468V21.9468ZM15.7951 22.8547C16.8351 23.4219 17.6305 24.2173 18.1977 25.2573L19.9535 24.2995C19.2024 22.9224 18.13 21.85 16.7529 21.0989L15.7951 22.8547ZM18.2111 25.281C18.7952 26.2857 19.1056 27.4935 19.1056 28.9396H21.1056C21.1056 27.1996 20.7293 25.6332 19.9401 24.2758L18.2111 25.281ZM19.1056 28.9396V42H21.1056V28.9396H19.1056ZM20.1056 41H17.098V43H20.1056V41ZM18.098 42V29.5576H16.098V42H18.098ZM18.098 29.5576C18.098 27.5213 17.5146 25.7996 16.2395 24.5245L14.8253 25.9387C15.6377 26.7511 16.098 27.9134 16.098 29.5576H18.098ZM16.2579 24.5433C15.0141 23.2323 13.3279 22.6248 11.33 22.6248V24.6248C12.9028 24.6248 14.0182 25.0885 14.8069 25.9199L16.2579 24.5433ZM11.33 22.6248C9.94066 22.6248 8.66729 22.9352 7.53786 23.5806L8.53014 25.317C9.32337 24.8638 10.2473 24.6248 11.33 24.6248V22.6248ZM7.53786 23.5806C6.4209 24.2188 5.50723 25.1237 4.79512 26.2693L6.49369 27.3251C7.04504 26.4382 7.72444 25.7774 8.53014 25.317L7.53786 23.5806ZM4.6444 26.7972V42H6.6444V26.7972H4.6444ZM5.6444 41H2.5956V43H5.6444V41ZM27.7205 41.588L27.3 42.4953L27.3084 42.4991L27.7205 41.588ZM25.0425 39.4044L24.2142 39.9647L24.2198 39.973L24.2256 39.9811L25.0425 39.4044ZM26.3197 31.5352L26.9244 32.3316L26.9244 32.3316L26.3197 31.5352ZM38.3913 31.2468L37.9334 32.1358L39.3913 32.8868V31.2468H38.3913ZM36.9905 24.8196L36.3168 25.5586L36.3228 25.564L36.3289 25.5694L36.9905 24.8196ZM29.8217 23.9956L30.0826 24.961L30.0912 24.9586L30.0998 24.9562L29.8217 23.9956ZM26.4433 25.3552L25.5458 25.7961L25.9937 26.708L26.8984 26.2456L26.4433 25.3552ZM25.2897 23.0068L24.8559 22.1058L23.9478 22.543L24.3922 23.4477L25.2897 23.0068ZM29.4097 21.4412L29.6621 22.4088L29.6621 22.4088L29.4097 21.4412ZM39.2153 22.8008L38.5537 23.5507L38.5609 23.557L39.2153 22.8008ZM41.3577 42V43H42.3577V42H41.3577ZM38.3913 42H37.3913V43H38.3913V42ZM38.3913 39.9812H39.3913V37.8139L37.7424 39.2204L38.3913 39.9812ZM35.3013 41.794L35.6317 42.738L35.6449 42.7331L35.3013 41.794ZM28.4621 38.91L27.8513 39.7018L27.8638 39.7114L27.8766 39.7207L28.4621 38.91ZM35.6309 39.4044L35.9848 40.3397L35.9848 40.3397L35.6309 39.4044ZM38.3913 37.5916L39.0984 38.2987L39.3913 38.0058V37.5916H38.3913ZM38.3913 33.7188H39.3913V33.1884L38.9522 32.8909L38.3913 33.7188ZM35.6721 32.4828L35.3974 33.4443L35.4102 33.448L35.4231 33.4513L35.6721 32.4828ZM28.4621 33.1832L29.0584 33.986L29.0621 33.9832L28.4621 33.1832ZM31.7169 41.3708C30.3214 41.3708 29.1342 41.13 28.1327 40.6769L27.3084 42.4991C28.614 43.0898 30.0911 43.3708 31.7169 43.3708V41.3708ZM28.141 40.6807C27.1596 40.2259 26.4092 39.6064 25.8595 38.8277L24.2256 39.9811C24.9943 41.0701 26.0291 41.9063 27.3001 42.4953L28.141 40.6807ZM25.8708 38.8441C25.3617 38.0915 25.0949 37.2059 25.0949 36.1496H23.0949C23.0949 37.5653 23.4599 38.8495 24.2142 39.9647L25.8708 38.8441ZM25.0949 36.1496C25.0949 34.4949 25.7037 33.2585 26.9244 32.3316L25.715 30.7388C23.9694 32.0641 23.0949 33.904 23.0949 36.1496H25.0949ZM26.9244 32.3316C28.181 31.3776 29.9493 30.846 32.3349 30.846V28.846C29.6666 28.846 27.4249 29.4405 25.715 30.7388L26.9244 32.3316ZM32.3349 30.846C34.4152 30.846 36.2748 31.2814 37.9334 32.1358L38.8493 30.3578C36.8823 29.3445 34.7042 28.846 32.3349 28.846V30.846ZM39.3913 31.2468V28.5276H37.3913V31.2468H39.3913ZM39.3913 28.5276C39.3913 26.6907 38.8651 25.14 37.6521 24.0698L36.3289 25.5694C36.9837 26.1472 37.3913 27.0685 37.3913 28.5276H39.3913ZM37.6643 24.0806C36.4823 23.003 34.8437 22.5424 32.9117 22.5424V24.5424C34.5504 24.5424 35.631 24.9333 36.3168 25.5586L37.6643 24.0806ZM32.9117 22.5424C31.7951 22.5424 30.6715 22.7085 29.5437 23.035L30.0998 24.9562C31.0594 24.6784 31.9958 24.5424 32.9117 24.5424V22.5424ZM29.5608 23.0302C28.4601 23.3277 27.2678 23.8107 25.9882 24.4648L26.8984 26.2456C28.0908 25.6362 29.1509 25.2128 30.0826 24.961L29.5608 23.0302ZM27.3409 24.9143L26.1873 22.5659L24.3922 23.4477L25.5458 25.7961L27.3409 24.9143ZM25.7235 23.9078C27.1629 23.2148 28.4748 22.7186 29.6621 22.4088L29.1573 20.4736C27.8177 20.823 26.383 21.3705 24.8559 22.1058L25.7235 23.9078ZM29.6621 22.4088C30.846 22.1 32.0246 21.9468 33.2001 21.9468V19.9468C31.8487 19.9468 30.5004 20.1232 29.1573 20.4736L29.6621 22.4088ZM33.2001 21.9468C35.6622 21.9468 37.3968 22.5299 38.5537 23.5506L39.8769 22.051C38.2322 20.5997 35.9567 19.9468 33.2001 19.9468V21.9468ZM38.5609 23.557C39.7218 24.5615 40.3577 26.0286 40.3577 28.1156H42.3577C42.3577 25.5882 41.5654 23.5121 39.8697 22.0446L38.5609 23.557ZM40.3577 28.1156V42H42.3577V28.1156H40.3577ZM41.3577 41H38.3913V43H41.3577V41ZM39.3913 42V39.9812H37.3913V42H39.3913ZM37.7424 39.2204C36.8967 39.9417 35.9697 40.4847 34.9577 40.8549L35.6449 42.7331C36.8853 42.2793 38.0182 41.6138 39.0403 40.742L37.7424 39.2204ZM34.971 40.8501C33.9894 41.1937 32.9076 41.3708 31.7169 41.3708V43.3708C33.1082 43.3708 34.4159 43.1634 35.6317 42.7379L34.971 40.8501ZM26.0201 36.0672C26.0201 37.5492 26.6595 38.7824 27.8513 39.7018L29.0729 38.1182C28.3421 37.5544 28.0201 36.8924 28.0201 36.0672H26.0201ZM27.8766 39.7207C29.0758 40.5867 30.5595 40.9812 32.2525 40.9812V38.9812C30.8693 38.9812 29.8261 38.6615 29.0476 38.0993L27.8766 39.7207ZM32.2525 40.9812C33.593 40.9812 34.841 40.7725 35.9848 40.3397L35.277 38.4691C34.3883 38.8054 33.3841 38.9812 32.2525 38.9812V40.9812ZM35.9848 40.3397C37.1431 39.9014 38.1816 39.2156 39.0984 38.2987L37.6842 36.8845C36.9531 37.6156 36.1513 38.1383 35.277 38.4691L35.9848 40.3397ZM39.3913 37.5916V33.7188H37.3913V37.5916H39.3913ZM38.9522 32.8909C38.0091 32.252 36.9977 31.7911 35.9212 31.5143L35.4231 33.4513C36.2692 33.6689 37.0706 34.032 37.8305 34.5467L38.9522 32.8909ZM35.9468 31.5213C34.8798 31.2164 33.7001 31.0708 32.4173 31.0708V33.0708C33.5516 33.0708 34.5417 33.1998 35.3974 33.4443L35.9468 31.5213ZM32.4173 31.0708C30.6246 31.0708 29.0737 31.4745 27.8621 32.3832L29.0621 33.9832C29.8282 33.4087 30.9141 33.0708 32.4173 33.0708V31.0708ZM27.8658 32.3805C26.6478 33.2853 26.0201 34.5457 26.0201 36.0672H28.0201C28.0201 35.1716 28.3538 34.5094 29.0584 33.9859L27.8658 32.3805ZM49.844 41.1348L50.507 40.3862L50.507 40.3862L49.844 41.1348ZM48.402 23.9544H49.402V22.9544H48.402V23.9544ZM43.9524 23.9544H42.9524V24.9544H43.9524V23.9544ZM43.9524 21.3588V20.3588H42.9524V21.3588H43.9524ZM48.402 21.3588V22.3588H49.402V21.3588H48.402ZM48.402 16.1264L48.1501 15.1586L47.402 15.3534V16.1264H48.402ZM51.4096 15.3436H52.4096V14.05L51.1577 14.3758L51.4096 15.3436ZM51.4096 21.3588H50.4096V22.3588H51.4096V21.3588ZM57.6308 21.3588H58.6308V20.3588H57.6308V21.3588ZM57.6308 23.9544V24.9544H58.6308V23.9544H57.6308ZM51.4096 23.9544V22.9544H50.4096V23.9544H51.4096ZM52.1512 39.0336L51.444 39.7407L51.4541 39.7508L51.4645 39.7606L52.1512 39.0336ZM56.1064 39.6104L55.9326 38.6256L55.9221 38.6275L56.1064 39.6104ZM57.5896 39.1984H58.5896V37.7643L57.2438 38.2601L57.5896 39.1984ZM57.5896 41.8764L57.9353 42.8147L58.5896 42.5737V41.8764H57.5896ZM55.818 42.2884L55.6939 41.2961L55.6886 41.2968L55.818 42.2884ZM53.964 41.412C52.3276 41.412 51.2249 41.022 50.507 40.3862L49.1809 41.8834C50.3857 42.9505 52.0296 43.412 53.964 43.412V41.412ZM50.507 40.3862C49.8136 39.7721 49.402 38.8416 49.402 37.4268H47.402C47.402 39.2531 47.9516 40.7946 49.1809 41.8834L50.507 40.3862ZM49.402 37.4268V23.9544H47.402V37.4268H49.402ZM48.402 22.9544H43.9524V24.9544H48.402V22.9544ZM44.9524 23.9544V21.3588H42.9524V23.9544H44.9524ZM43.9524 22.3588H48.402V20.3588H43.9524V22.3588ZM49.402 21.3588V16.1264H47.402V21.3588H49.402ZM48.6538 17.0942L51.6614 16.3114L51.1577 14.3758L48.1501 15.1586L48.6538 17.0942ZM50.4096 15.3436V21.3588H52.4096V15.3436H50.4096ZM51.4096 22.3588H57.6308V20.3588H51.4096V22.3588ZM56.6308 21.3588V23.9544H58.6308V21.3588H56.6308ZM57.6308 22.9544H51.4096V24.9544H57.6308V22.9544ZM50.4096 23.9544V36.644H52.4096V23.9544H50.4096ZM50.4096 36.644C50.4096 37.861 50.679 38.9756 51.444 39.7407L52.8583 38.3265C52.6346 38.1028 52.4096 37.6244 52.4096 36.644H50.4096ZM51.4645 39.7606C52.2339 40.4873 53.358 40.734 54.582 40.734V38.734C53.5537 38.734 53.0572 38.5138 52.8378 38.3066L51.4645 39.7606ZM54.582 40.734C55.2038 40.734 55.7759 40.6898 56.2906 40.5933L55.9221 38.6275C55.5579 38.6958 55.1137 38.734 54.582 38.734V40.734ZM56.2801 40.5952C56.8147 40.5009 57.3669 40.3461 57.9353 40.1367L57.2438 38.2601C56.7685 38.4352 56.3319 38.5551 55.9326 38.6256L56.2801 40.5952ZM56.5896 39.1984V41.8764H58.5896V39.1984H56.5896ZM57.2438 40.9381C56.8058 41.0994 56.2916 41.2214 55.6939 41.2961L55.942 43.2807C56.6627 43.1906 57.3296 43.0379 57.9353 42.8147L57.2438 40.9381ZM55.6886 41.2968C55.0975 41.3739 54.5227 41.412 53.964 41.412V43.412C54.6137 43.412 55.275 43.3677 55.9473 43.28L55.6886 41.2968ZM64.7777 40.97L64.261 41.8262L64.2696 41.8314L64.2784 41.8364L64.7777 40.97ZM60.9461 37.0972L60.0796 37.5965L60.086 37.6074L60.9461 37.0972ZM60.9049 26.3028L61.7741 26.7973L61.7776 26.791L60.9049 26.3028ZM64.5717 22.4712L65.0907 23.3261L65.1017 23.3192L64.5717 22.4712ZM74.6657 22.4712L74.1146 23.3057L74.1237 23.3116L74.1329 23.3174L74.6657 22.4712ZM78.1677 26.3028L77.2824 26.7679L77.2872 26.777L77.2921 26.7859L78.1677 26.3028ZM79.4861 32.6064V33.6064H80.4861V32.6064H79.4861ZM62.5529 32.6064V31.6064H61.4229L61.5603 32.7279L62.5529 32.6064ZM63.8301 36.232L62.9882 36.7717L62.993 36.7792L62.998 36.7867L63.8301 36.232ZM66.5905 38.7864L66.1012 39.6585L66.1094 39.6631L66.1176 39.6676L66.5905 38.7864ZM73.4297 39.1984L73.1212 38.2472L73.1212 38.2472L73.4297 39.1984ZM75.9841 37.7976L76.7131 37.1132L76.0504 36.4072L75.3234 37.0469L75.9841 37.7976ZM77.8793 39.8164L78.4731 40.621L79.3787 39.9526L78.6083 39.132L77.8793 39.8164ZM74.2537 41.7528L74.5699 42.7016L74.5822 42.6973L74.2537 41.7528ZM62.6353 30.1756L61.6466 30.0252L61.4716 31.1756H62.6353V30.1756ZM76.4373 30.1756V31.1756H77.5795L77.4285 30.0434L76.4373 30.1756ZM75.2013 26.8796L74.3586 27.418L74.3673 27.4317L74.3765 27.4451L75.2013 26.8796ZM72.8117 24.5724L72.2972 25.4299L72.3063 25.4354L72.3155 25.4406L72.8117 24.5724ZM66.3845 24.5312L66.8701 25.4054L66.8701 25.4054L66.3845 24.5312ZM63.9125 26.8384L64.7373 27.404L64.7445 27.3931L63.9125 26.8384ZM70.1749 41.3708C68.3621 41.3708 66.7369 40.9449 65.277 40.1036L64.2784 41.8364C66.0595 42.8629 68.0324 43.3708 70.1749 43.3708V41.3708ZM65.2943 40.1138C63.8444 39.2388 62.6844 38.0675 61.8061 36.587L60.086 37.6074C61.1304 39.3679 62.5248 40.7785 64.261 41.8262L65.2943 40.1138ZM61.8125 36.5979C60.9724 35.1401 60.5453 33.5017 60.5453 31.6588H58.5453C58.5453 33.8261 59.052 35.8132 60.0796 37.5965L61.8125 36.5979ZM60.5453 31.6588C60.5453 29.8405 60.9601 28.2279 61.774 26.7973L60.0357 25.8083C59.0368 27.5639 58.5453 29.5219 58.5453 31.6588H60.5453ZM61.7776 26.791C62.6025 25.3161 63.7049 24.1673 65.0906 23.326L64.0527 21.6164C62.3621 22.6428 61.02 24.0484 60.0321 25.8146L61.7776 26.791ZM65.1017 23.3192C66.4735 22.4618 68.0051 22.0292 69.7217 22.0292V20.0292C67.6479 20.0292 65.7461 20.558 64.0417 21.6232L65.1017 23.3192ZM69.7217 22.0292C71.3773 22.0292 72.8316 22.4584 74.1146 23.3057L75.2167 21.6367C73.5883 20.5614 71.7466 20.0292 69.7217 20.0292V22.0292ZM74.1329 23.3174C75.4603 24.1532 76.509 25.296 77.2824 26.7679L79.0529 25.8377C78.1234 24.0685 76.8374 22.6569 75.1985 21.625L74.1329 23.3174ZM77.2921 26.7859C78.0824 28.2184 78.4861 29.8351 78.4861 31.6588H80.4861C80.4861 29.5273 80.0108 27.5734 79.0432 25.8197L77.2921 26.7859ZM78.4861 31.6588V32.6064H80.4861V31.6588H78.4861ZM79.4861 31.6064H62.5529V33.6064H79.4861V31.6064ZM61.5603 32.7279C61.7421 34.2127 62.2153 35.566 62.9882 36.7717L64.6719 35.6923C64.0715 34.7556 63.6932 33.6918 63.5455 32.4849L61.5603 32.7279ZM62.998 36.7867C63.8 37.9897 64.8378 38.9498 66.1012 39.6585L67.0797 37.9143C66.0909 37.3595 65.2884 36.6167 64.6621 35.6773L62.998 36.7867ZM66.1176 39.6676C67.3969 40.354 68.7967 40.6928 70.2985 40.6928V38.6928C69.1085 38.6928 68.0363 38.4273 67.0633 37.9052L66.1176 39.6676ZM70.2985 40.6928C71.4741 40.6928 72.622 40.5116 73.7382 40.1496L73.1212 38.2472C72.2048 38.5444 71.2652 38.6928 70.2985 38.6928V40.6928ZM73.7382 40.1496C74.8627 39.7849 75.8398 39.2566 76.6447 38.5483L75.3234 37.0469C74.755 37.5471 74.0292 37.9527 73.1212 38.2472L73.7382 40.1496ZM75.255 38.482L77.1502 40.5008L78.6083 39.132L76.7131 37.1132L75.255 38.482ZM77.2854 39.0118C76.2069 39.8079 75.0871 40.4042 73.9251 40.8083L74.5822 42.6973C75.9472 42.2225 77.2444 41.5279 78.4731 40.621L77.2854 39.0118ZM73.9374 40.8041C72.8164 41.1778 71.5652 41.3708 70.1749 41.3708V43.3708C71.7509 43.3708 73.2189 43.1518 74.5699 42.7015L73.9374 40.8041ZM62.6353 31.1756H76.4373V29.1756H62.6353V31.1756ZM77.4285 30.0434C77.2444 28.663 76.7801 27.4137 76.026 26.3141L74.3765 27.4451C74.9409 28.2681 75.3005 29.2162 75.446 30.3078L77.4285 30.0434ZM76.044 26.3412C75.3305 25.2244 74.418 24.3386 73.3078 23.7042L72.3155 25.4406C73.128 25.9049 73.8086 26.5572 74.3586 27.418L76.044 26.3412ZM73.3262 23.7149C72.2048 23.0421 70.9686 22.7072 69.6393 22.7072V24.7072C70.6171 24.7072 71.4959 24.9491 72.2972 25.4299L73.3262 23.7149ZM69.6393 22.7072C68.296 22.7072 67.0428 23.0215 65.8988 23.657L66.8701 25.4054C67.7037 24.9423 68.6204 24.7072 69.6393 24.7072V22.7072ZM65.8988 23.657C64.7637 24.2877 63.8234 25.1693 63.0804 26.2837L64.7445 27.3931C65.32 26.5299 66.0277 25.8734 66.8701 25.4054L65.8988 23.657ZM63.0877 26.2729C62.3354 27.3701 61.8594 28.6273 61.6466 30.0252L63.6239 30.326C63.7957 29.197 64.1712 28.2294 64.7372 27.4039L63.0877 26.2729ZM87.9919 41.0112L87.4753 41.8674L87.4839 41.8726L87.4926 41.8776L87.9919 41.0112ZM84.2015 37.1384L85.068 36.6391L85.068 36.6391L84.2015 37.1384ZM84.2015 26.2616L83.3351 25.7623L83.3351 25.7623L84.2015 26.2616ZM87.9919 22.43L88.4977 23.2927L88.5021 23.2901L87.9919 22.43ZM98.7039 22.43L98.1872 23.2863L98.1982 23.2927L98.7039 22.43ZM102.494 26.2616L101.628 26.7609L101.628 26.7609L102.494 26.2616ZM102.494 37.1384L101.628 36.6391L101.628 36.6391L102.494 37.1384ZM98.7039 41.0112L99.2097 41.874L99.2206 41.8674L98.7039 41.0112ZM97.1383 38.6216L96.6119 37.7713L96.6028 37.7771L97.1383 38.6216ZM99.8575 35.7376L98.9881 35.2436L98.9838 35.2511L98.9796 35.2587L99.8575 35.7376ZM99.8575 27.6624L98.9796 28.1413L98.9862 28.1532L98.993 28.165L99.8575 27.6624ZM97.1383 24.7784L96.6028 25.623L96.612 25.6287L97.1383 24.7784ZM89.5163 24.7784L88.9899 23.9281L88.9808 23.9339L89.5163 24.7784ZM86.7971 27.6624L85.9277 27.1684L85.9239 27.175L86.7971 27.6624ZM86.7971 35.7376L85.9192 36.2165L85.9234 36.2241L85.9277 36.2316L86.7971 35.7376ZM89.5163 38.6216L88.9808 39.4662L88.99 39.4719L89.5163 38.6216ZM93.3479 41.412C91.5653 41.412 89.9533 40.9873 88.4912 40.1448L87.4926 41.8776C89.2716 42.9028 91.2303 43.412 93.3479 43.412V41.412ZM88.5086 40.155C87.0612 39.2816 85.9178 38.1138 85.068 36.6391L83.3351 37.6377C84.353 39.4041 85.7365 40.8181 87.4753 41.8674L88.5086 40.155ZM85.068 36.6391C84.2279 35.1813 83.8007 33.5429 83.8007 31.7H81.8007C81.8007 33.8673 82.3074 35.8544 83.3351 37.6377L85.068 36.6391ZM83.8007 31.7C83.8007 29.8571 84.2279 28.2187 85.068 26.7609L83.3351 25.7623C82.3074 27.5456 81.8007 29.5327 81.8007 31.7H83.8007ZM85.068 26.7609C85.9163 25.2887 87.0563 24.1376 88.4977 23.2927L87.4862 21.5673C85.7414 22.5901 84.3545 23.9934 83.3351 25.7623L85.068 26.7609ZM88.5021 23.2901C89.9627 22.4236 91.5708 21.988 93.3479 21.988V19.988C91.2248 19.988 89.2622 20.5137 87.4817 21.5699L88.5021 23.2901ZM93.3479 21.988C95.1553 21.988 96.76 22.4249 98.1873 23.2862L99.2206 21.5738C97.4617 20.5124 95.4957 19.988 93.3479 19.988V21.988ZM98.1982 23.2927C99.6395 24.1376 100.78 25.2887 101.628 26.7609L103.361 25.7623C102.341 23.9934 100.954 22.5901 99.2097 21.5673L98.1982 23.2927ZM101.628 26.7609C102.468 28.2187 102.895 29.8571 102.895 31.7H104.895C104.895 29.5327 104.388 27.5456 103.361 25.7623L101.628 26.7609ZM102.895 31.7C102.895 33.5429 102.468 35.1813 101.628 36.6391L103.361 37.6377C104.388 35.8544 104.895 33.8673 104.895 31.7H102.895ZM101.628 36.6391C100.778 38.1138 99.6346 39.2816 98.1873 40.155L99.2206 41.8674C100.959 40.8181 102.343 39.4041 103.361 37.6377L101.628 36.6391ZM98.1982 40.1485C96.7694 40.9861 95.1608 41.412 93.3479 41.412V43.412C95.4902 43.412 97.4523 42.9041 99.2097 41.8739L98.1982 40.1485ZM93.3479 40.6928C94.9283 40.6928 96.3793 40.2871 97.6739 39.4661L96.6028 37.7771C95.6451 38.3844 94.5691 38.6928 93.3479 38.6928V40.6928ZM97.6647 39.4719C98.9679 38.6651 99.9945 37.5748 100.735 36.2165L98.9796 35.2587C98.4022 36.3174 97.6159 37.1498 96.612 37.7713L97.6647 39.4719ZM100.727 36.2316C101.505 34.8624 101.888 33.3444 101.888 31.7H99.8875C99.8875 33.022 99.5834 34.1958 98.9881 35.2436L100.727 36.2316ZM101.888 31.7C101.888 30.0319 101.507 28.5092 100.722 27.1598L98.993 28.165C99.5818 29.1777 99.8875 30.3467 99.8875 31.7H101.888ZM100.735 27.1835C99.9945 25.8252 98.9679 24.7349 97.6647 23.9281L96.612 25.6287C97.6159 26.2502 98.4022 27.0826 98.9796 28.1413L100.735 27.1835ZM97.6739 23.9339C96.3793 23.1129 94.9283 22.7072 93.3479 22.7072V24.7072C94.5691 24.7072 95.6451 25.0156 96.6028 25.6229L97.6739 23.9339ZM93.3479 22.7072C91.7675 22.7072 90.307 23.1128 88.99 23.9281L90.0427 25.6287C91.0329 25.0157 92.1267 24.7072 93.3479 24.7072V22.7072ZM88.9808 23.9339C87.7104 24.7395 86.6917 25.8237 85.9277 27.1684L87.6666 28.1564C88.2759 27.084 89.07 26.2455 90.0519 25.6229L88.9808 23.9339ZM85.9239 27.175C85.1722 28.5219 84.8083 30.0391 84.8083 31.7H86.8083C86.8083 30.3396 87.1037 29.1651 87.6703 28.1498L85.9239 27.175ZM84.8083 31.7C84.8083 33.3372 85.1738 34.8498 85.9192 36.2165L87.675 35.2587C87.1021 34.2084 86.8083 33.0292 86.8083 31.7H84.8083ZM85.9277 36.2316C86.6917 37.5763 87.7104 38.6605 88.9808 39.4661L90.0519 37.7771C89.07 37.1544 88.2759 36.316 87.6666 35.2436L85.9277 36.2316ZM88.99 39.4719C90.307 40.2872 91.7675 40.6928 93.3479 40.6928V38.6928C92.1267 38.6928 91.0329 38.3843 90.0427 37.7713L88.99 39.4719ZM108.707 42L107.729 41.7928L107.473 43H108.707V42ZM112.415 24.49L113.393 24.6972L113.649 23.49H112.415V24.49ZM107.718 24.49L106.738 24.2916L106.496 25.49H107.718V24.49ZM108.419 21.0292V20.0292H107.601L107.439 20.8308L108.419 21.0292ZM113.198 21.0292V22.0292H114.014L114.178 21.2296L113.198 21.0292ZM113.94 17.4036L112.962 17.1923L112.96 17.2032L113.94 17.4036ZM116.535 12.748L117.174 13.5176L117.175 13.5162L116.535 12.748ZM123.416 11.2648L123.244 12.25L123.265 12.2536L123.286 12.2564L123.416 11.2648ZM125.022 11.6768L126.003 11.8707L126.159 11.0826L125.423 10.7606L125.022 11.6768ZM124.322 15.22L123.971 16.1563L125.074 16.5702L125.303 15.4139L124.322 15.22ZM119.09 15.4672L119.719 16.2444L119.73 16.2356L119.74 16.2265L119.09 15.4672ZM117.895 17.7332L116.916 17.5272L116.914 17.5371L117.895 17.7332ZM117.236 21.0292L116.255 20.8331L116.016 22.0292H117.236V21.0292ZM123.086 21.0292L124.061 21.2498L124.337 20.0292H123.086V21.0292ZM122.303 24.49V25.49H123.102L123.279 24.7106L122.303 24.49ZM116.453 24.49V23.49H115.642L115.474 24.2828L116.453 24.49ZM112.745 42V43H113.555L113.723 42.2072L112.745 42ZM109.685 42.2072L113.393 24.6972L111.437 24.2828L107.729 41.7928L109.685 42.2072ZM112.415 23.49H107.718V25.49H112.415V23.49ZM108.698 24.6884L109.399 21.2276L107.439 20.8308L106.738 24.2916L108.698 24.6884ZM108.419 22.0292H113.198V20.0292H108.419V22.0292ZM114.178 21.2296L114.919 17.604L112.96 17.2032L112.218 20.8288L114.178 21.2296ZM114.917 17.6149C115.321 15.7475 116.093 14.4144 117.174 13.5176L115.897 11.9784C114.395 13.224 113.437 14.9946 112.962 17.1923L114.917 17.6149ZM117.175 13.5162C118.282 12.5939 119.718 12.1 121.562 12.1V10.1C119.34 10.1 117.425 10.7048 115.895 11.9798L117.175 13.5162ZM121.562 12.1C122.105 12.1 122.666 12.1494 123.244 12.25L123.587 10.2796C122.902 10.1605 122.227 10.1 121.562 10.1V12.1ZM123.286 12.2564C123.853 12.3303 124.292 12.4486 124.622 12.593L125.423 10.7606C124.874 10.5205 124.242 10.3641 123.545 10.2732L123.286 12.2564ZM124.041 11.4829L123.341 15.0261L125.303 15.4139L126.003 11.8707L124.041 11.4829ZM124.673 14.2837C124.182 14.0996 123.687 13.9599 123.188 13.8663L122.819 15.8321C123.199 15.9033 123.583 16.0108 123.971 16.1563L124.673 14.2837ZM123.188 13.8663C122.676 13.7703 122.118 13.7256 121.52 13.7256V15.7256C122.021 15.7256 122.452 15.7633 122.819 15.8321L123.188 13.8663ZM121.52 13.7256C120.327 13.7256 119.255 14.0086 118.439 14.7079L119.74 16.2265C120.078 15.937 120.626 15.7256 121.52 15.7256V13.7256ZM118.46 14.69C117.641 15.3531 117.163 16.3545 116.916 17.5272L118.873 17.9392C119.066 17.0244 119.384 16.5152 119.719 16.2444L118.46 14.69ZM116.914 17.5371L116.255 20.8331L118.216 21.2253L118.875 17.9293L116.914 17.5371ZM117.236 22.0292H123.086V20.0292H117.236V22.0292ZM122.111 20.8086L121.328 24.2694L123.279 24.7106L124.061 21.2498L122.111 20.8086ZM122.303 23.49H116.453V25.49H122.303V23.49ZM115.474 24.2828L111.766 41.7928L113.723 42.2072L117.431 24.6972L115.474 24.2828ZM112.745 41H108.707V43H112.745V41ZM121.754 42L120.776 41.7918L120.519 43H121.754V42ZM127.893 13.16L127.682 12.1825L127.049 12.3189L126.915 12.9518L127.893 13.16ZM132.095 12.2536L133.074 12.4609L133.394 10.9506L131.884 11.2761L132.095 12.2536ZM125.792 42V43H126.602L126.77 42.2073L125.792 42ZM122.732 42.2082L128.871 13.3682L126.915 12.9518L120.776 41.7918L122.732 42.2082ZM128.104 14.1375L132.306 13.2311L131.884 11.2761L127.682 12.1825L128.104 14.1375ZM131.117 12.0463L124.813 41.7927L126.77 42.2073L133.074 12.4609L131.117 12.0463ZM125.792 41H121.754V43H125.792V41ZM134.726 41.2172L134.162 42.0431L134.171 42.0493L134.726 41.2172ZM132.336 38.086L131.387 38.4022L131.39 38.4111L131.393 38.4198L132.336 38.086ZM132.171 33.5952L131.193 33.3868L131.192 33.3945L131.19 33.4022L132.171 33.5952ZM134.849 21.0292V20.0292H134.04L133.871 20.8208L134.849 21.0292ZM138.887 21.0292L139.865 21.238L140.123 20.0292H138.887V21.0292ZM136.291 33.1832L135.313 32.9743L135.312 32.978L136.291 33.1832ZM136.909 37.3032L136.104 37.8964L136.113 37.9084L136.122 37.9201L136.909 37.3032ZM143.419 38.1684L143.855 39.0682L143.855 39.0682L143.419 38.1684ZM145.85 36.2732L146.605 36.9281L146.775 36.7326L146.828 36.4795L145.85 36.2732ZM149.063 21.0292V20.0292H148.252L148.085 20.8229L149.063 21.0292ZM153.101 21.0292L154.079 21.2368L154.335 20.0292H153.101V21.0292ZM148.651 42V43H149.461L149.629 42.2076L148.651 42ZM144.614 42L143.637 41.7831L143.367 43H144.614V42ZM145.026 40.146L146.002 40.3629L146.629 37.5424L144.392 39.372L145.026 40.146ZM138.969 41.3708C137.449 41.3708 136.238 41.0237 135.28 40.3851L134.171 42.0493C135.52 42.9489 137.138 43.3708 138.969 43.3708V41.3708ZM135.29 40.3914C134.343 39.7452 133.677 38.876 133.279 37.7522L131.393 38.4198C131.929 39.9328 132.856 41.151 134.162 42.043L135.29 40.3914ZM133.285 37.7698C132.911 36.6491 132.849 35.3325 133.152 33.7882L131.19 33.4022C130.835 35.2088 130.882 36.8861 131.387 38.4022L133.285 37.7698ZM133.149 33.8036L135.827 21.2376L133.871 20.8208L131.193 33.3868L133.149 33.8036ZM134.849 22.0292H138.887V20.0292H134.849V22.0292ZM137.909 20.8203L135.313 32.9743L137.269 33.392L139.865 21.238L137.909 20.8203ZM135.312 32.978C134.918 34.8596 135.114 36.5523 136.104 37.8964L137.714 36.71C137.167 35.9667 136.95 34.9127 137.27 33.3884L135.312 32.978ZM136.122 37.9201C137.152 39.2345 138.673 39.8276 140.494 39.8276V37.8276C139.128 37.8276 138.259 37.4045 137.696 36.6863L136.122 37.9201ZM140.494 39.8276C141.683 39.8276 142.808 39.576 143.855 39.0682L142.983 37.2686C142.217 37.6397 141.392 37.8276 140.494 37.8276V39.8276ZM143.855 39.0682C144.893 38.5649 145.81 37.846 146.605 36.9281L145.094 35.6183C144.461 36.3484 143.757 36.893 142.983 37.2686L143.855 39.0682ZM146.828 36.4795L150.042 21.2355L148.085 20.8229L144.871 36.0669L146.828 36.4795ZM149.063 22.0292H153.101V20.0292H149.063V22.0292ZM152.123 20.8216L147.673 41.7924L149.629 42.2076L154.079 21.2368L152.123 20.8216ZM148.651 41H144.614V43H148.651V41ZM145.59 42.2169L146.002 40.3629L144.049 39.9291L143.637 41.7831L145.59 42.2169ZM144.392 39.372C142.748 40.7174 140.95 41.3708 138.969 41.3708V43.3708C141.438 43.3708 143.678 42.541 145.659 40.92L144.392 39.372ZM151.068 42L150.346 41.3081L148.725 43H151.068V42ZM161.492 31.1232L162.214 31.8151L162.716 31.2914L162.374 30.6517L161.492 31.1232ZM156.095 21.0292V20.0292H154.426L155.213 21.5007L156.095 21.0292ZM160.627 21.0292L161.514 20.5678L161.234 20.0292H160.627V21.0292ZM164.376 28.2392L163.489 28.7006L164.138 29.9492L165.103 28.9252L164.376 28.2392ZM171.174 21.0292V20.0292H170.742L170.446 20.3432L171.174 21.0292ZM175.994 21.0292L176.713 21.7247L178.354 20.0292H175.994V21.0292ZM166.065 31.288L165.346 30.5925L164.839 31.1165L165.183 31.7595L166.065 31.288ZM171.792 42V43H173.46L172.674 41.5285L171.792 42ZM167.301 42L166.414 42.4622L166.695 43H167.301V42ZM163.263 34.2544L164.15 33.7922L163.504 32.5519L162.539 33.5648L163.263 34.2544ZM155.889 42V43H156.317L156.613 42.6896L155.889 42ZM151.79 42.6919L162.214 31.8151L160.77 30.4313L150.346 41.3081L151.79 42.6919ZM162.374 30.6517L156.976 20.5577L155.213 21.5007L160.61 31.5947L162.374 30.6517ZM156.095 22.0292H160.627V20.0292H156.095V22.0292ZM159.739 21.4906L163.489 28.7006L165.263 27.7778L161.514 20.5678L159.739 21.4906ZM165.103 28.9252L171.901 21.7152L170.446 20.3432L163.648 27.5532L165.103 28.9252ZM171.174 22.0292H175.994V20.0292H171.174V22.0292ZM175.276 20.3337L165.346 30.5925L166.784 31.9835L176.713 21.7247L175.276 20.3337ZM165.183 31.7595L170.91 42.4715L172.674 41.5285L166.947 30.8165L165.183 31.7595ZM171.792 41H167.301V43H171.792V41ZM168.188 41.5378L164.15 33.7922L162.377 34.7166L166.414 42.4622L168.188 41.5378ZM162.539 33.5648L155.164 41.3104L156.613 42.6896L163.988 34.944L162.539 33.5648ZM155.889 41H151.068V43H155.889V41Z" fill="white" mask="url(#path-1-outside-1_489_57)"/>
<line x1="179" y1="23" x2="209" y2="23" stroke="black" stroke-width="4"/>
<line x1="179" y1="31.5" x2="203" y2="31.5" stroke="black" stroke-width="4"/>
<line x1="179" y1="40" x2="197" y2="40" stroke="black" stroke-width="4"/>
<line x1="178" y1="20.5" x2="210" y2="20.5" stroke="white"/>
<line x1="178" y1="25.5" x2="210" y2="25.5" stroke="white"/>
<line x1="178" y1="29" x2="204" y2="29" stroke="white"/>
<line x1="178" y1="33.5" x2="204" y2="33.5" stroke="white"/>
<line x1="178" y1="37.5" x2="198" y2="37.5" stroke="white"/>
<line x1="178" y1="42.5" x2="198" y2="42.5" stroke="white"/>
<line x1="197.5" y1="43" x2="197.5" y2="37" stroke="white"/>
<line x1="178.5" y1="43" x2="178.5" y2="37" stroke="white"/>
<line x1="178.5" y1="26" x2="178.5" y2="20" stroke="white"/>
<line x1="209.5" y1="26" x2="209.5" y2="20" stroke="white"/>
<line x1="178.5" y1="34" x2="178.5" y2="29" stroke="white"/>
<line x1="203.5" y1="34" x2="203.5" y2="29" stroke="white"/>
</svg>
